<svg xmlns="http://www.w3.org/2000/svg" width="66.414" height="66.414" viewBox="0 0 66.414 66.414">
  <g id="Group_64212" data-name="Group 64212" transform="translate(-4570 -5075)">
    <path id="Path_61149" data-name="Path 61149" d="M574.508,396.357a16.169,16.169,0,0,0-4.407-11.114,79.7,79.7,0,0,0-6.239-5.868l-33.161.764a16.218,16.218,0,0,0-16.2,16.218l-.283,33.783s2.07,2.313,4.963,5.243a16.147,16.147,0,0,0,11.523,4.821h27.6a16.218,16.218,0,0,0,16.2-16.218Z" transform="translate(4060.492 4699.794)" fill="#f7f1e9" stroke="#4c3935" stroke-linecap="round" stroke-linejoin="round" stroke-miterlimit="1.5" stroke-width="2" fill-rule="evenodd"/>
    <path id="Path_61150" data-name="Path 61150" d="M576.416,401.57a16.2,16.2,0,0,0-16.194-16.194H532.633a16.2,16.2,0,0,0-16.194,16.194v27.589a16.2,16.2,0,0,0,16.194,16.194h27.589a16.2,16.2,0,0,0,16.194-16.194Z" transform="translate(4054.562 4690.625)" fill="#f7f1e9" stroke="#4c3935" stroke-linecap="round" stroke-linejoin="round" stroke-miterlimit="1.5" stroke-width="2" fill-rule="evenodd"/>
    <ellipse id="Ellipse_1443" data-name="Ellipse 1443" cx="1.886" cy="1.885" rx="1.886" ry="1.885" transform="translate(4615.822 5088.005)" fill="#f7f1e9" stroke="#4c3935" stroke-linecap="round" stroke-linejoin="round" stroke-miterlimit="1.5" stroke-width="2"/>
    <circle id="Ellipse_1444" data-name="Ellipse 1444" cx="15.515" cy="15.515" r="15.515" transform="translate(4585.75 5090.908)" fill="#f7f1e9" stroke="#4c3935" stroke-linecap="round" stroke-linejoin="round" stroke-miterlimit="1.5" stroke-width="2"/>
    <path id="Path_61151" data-name="Path 61151" d="M492.009,169l4.037,4.006" transform="translate(4134.617 4960.64)" fill="none" stroke="#4c3935" stroke-linecap="round" stroke-miterlimit="5" stroke-width="2" fill-rule="evenodd"/>
    <path id="Path_61152" data-name="Path 61152" d="M492.845,169.839l3.991,4.083" transform="translate(4136.145 4956.287)" fill="none" stroke="#4c3935" stroke-linecap="round" stroke-miterlimit="5" stroke-width="2" fill-rule="evenodd"/>
    <path id="Path_61153" data-name="Path 61153" d="M491.674,168.669l4,4.105" transform="translate(4138.865 4954.659)" fill="none" stroke="#4c3935" stroke-linecap="round" stroke-miterlimit="5" stroke-width="2" fill-rule="evenodd"/>
    <path id="Path_61154" data-name="Path 61154" d="M491.395,168.389l4.023,4.123" transform="translate(4139.583 4950.496)" fill="none" stroke="#4c3935" stroke-linecap="round" stroke-miterlimit="5" stroke-width="2" fill-rule="evenodd"/>
    <path id="Path_61155" data-name="Path 61155" d="M491.657,168.552l3.985,4.092" transform="translate(4139.358 4945.949)" fill="none" stroke="#4c3935" stroke-linecap="round" stroke-miterlimit="5" stroke-width="2" fill-rule="evenodd"/>
    <path id="Path_61156" data-name="Path 61156" d="M491.657,168.552l3.985,4.092" transform="translate(4139.358 4941.796)" fill="none" stroke="#4c3935" stroke-linecap="round" stroke-miterlimit="5" stroke-width="2" fill-rule="evenodd"/>
    <path id="Path_61157" data-name="Path 61157" d="M491.392,168.281l4.023,4.14" transform="translate(4139.585 4937.624)" fill="none" stroke="#4c3935" stroke-linecap="round" stroke-miterlimit="5" stroke-width="2" fill-rule="evenodd"/>
    <path id="Path_61158" data-name="Path 61158" d="M491.657,168.552l3.985,4.092" transform="translate(4139.358 4932.983)" fill="none" stroke="#4c3935" stroke-linecap="round" stroke-miterlimit="5" stroke-width="2" fill-rule="evenodd"/>
    <path id="Path_61159" data-name="Path 61159" d="M491.392,168.386l4.023,4.124" transform="translate(4139.585 4928.639)" fill="none" stroke="#4c3935" stroke-linecap="round" stroke-miterlimit="5" stroke-width="2" fill-rule="evenodd"/>
    <path id="Path_61160" data-name="Path 61160" d="M491.392,168.281l4.023,4.14" transform="translate(4139.585 4924.331)" fill="none" stroke="#4c3935" stroke-linecap="round" stroke-miterlimit="5" stroke-width="2" fill-rule="evenodd"/>
    <path id="Path_61161" data-name="Path 61161" d="M491.677,168.573l4.066,4.184" transform="translate(4138.67 4919.37)" fill="none" stroke="#4c3935" stroke-linecap="round" stroke-miterlimit="5" stroke-width="2" fill-rule="evenodd"/>
    <path id="Path_61162" data-name="Path 61162" d="M491.13,168.124l3.969,4.061" transform="translate(4132.527 4964.291)" fill="none" stroke="#4c3935" stroke-linecap="round" stroke-miterlimit="5" stroke-width="2" fill-rule="evenodd"/>
    <path id="Path_61163" data-name="Path 61163" d="M492.07,168.977l3.839,3.944" transform="translate(4128.459 4965.468)" fill="none" stroke="#4c3935" stroke-linecap="round" stroke-miterlimit="5" stroke-width="2" fill-rule="evenodd"/>
    <path id="Path_61164" data-name="Path 61164" d="M492.041,168.948l3.926,4.041" transform="translate(4125.877 4966.691)" fill="none" stroke="#4c3935" stroke-linecap="round" stroke-miterlimit="5" stroke-width="2" fill-rule="evenodd"/>
    <path id="Path_61165" data-name="Path 61165" d="M492.056,168.966l3.909,4.022" transform="translate(4121.63 4967.012)" fill="none" stroke="#4c3935" stroke-linecap="round" stroke-miterlimit="5" stroke-width="2" fill-rule="evenodd"/>
    <path id="Path_61166" data-name="Path 61166" d="M471.054,168.966l3.8,4.022" transform="translate(4138.521 4967.012)" fill="none" stroke="#4c3935" stroke-linecap="round" stroke-miterlimit="5" stroke-width="2" fill-rule="evenodd"/>
    <path id="Path_61167" data-name="Path 61167" d="M491.971,168.966l3.93,4.022" transform="translate(4113.441 4967.012)" fill="none" stroke="#4c3935" stroke-linecap="round" stroke-miterlimit="5" stroke-width="2" fill-rule="evenodd"/>
    <path id="Path_61168" data-name="Path 61168" d="M491.971,168.966l3.922,4.022" transform="translate(4108.95 4967.012)" fill="none" stroke="#4c3935" stroke-linecap="round" stroke-miterlimit="5" stroke-width="2" fill-rule="evenodd"/>
    <path id="Path_61169" data-name="Path 61169" d="M491.971,168.966l3.922,4.022" transform="translate(4104.587 4967.012)" fill="none" stroke="#4c3935" stroke-linecap="round" stroke-miterlimit="5" stroke-width="2" fill-rule="evenodd"/>
    <path id="Path_61170" data-name="Path 61170" d="M491.971,168.966l3.922,4.022" transform="translate(4100.052 4967.012)" fill="none" stroke="#4c3935" stroke-linecap="round" stroke-miterlimit="5" stroke-width="2" fill-rule="evenodd"/>
    <path id="Path_61171" data-name="Path 61171" d="M491.971,168.966l3.93,4.022" transform="translate(4095.898 4967.012)" fill="none" stroke="#4c3935" stroke-linecap="round" stroke-miterlimit="5" stroke-width="2" fill-rule="evenodd"/>
    <path id="Path_61172" data-name="Path 61172" d="M635.477,220.817l4.073,4.192" transform="translate(3948.045 4914.656)" fill="none" stroke="#4c3935" stroke-miterlimit="5" stroke-width="2" fill-rule="evenodd"/>
    <path id="Path_61173" data-name="Path 61173" d="M0,0,2.293,2.36" transform="translate(4581.509 5134.382) rotate(10.045)" fill="none" stroke="#4c3935" stroke-miterlimit="5" stroke-width="2" fill-rule="evenodd"/>
  </g>
</svg>
