<?xml version="1.0" encoding="utf-8"?>
<!-- Generator: Adobe Illustrator 23.0.5, SVG Export Plug-In . SVG Version: 6.00 Build 0)  -->
<svg version="1.1" id="Layer_1" xmlns="http://www.w3.org/2000/svg" xmlns:xlink="http://www.w3.org/1999/xlink" x="0px" y="0px"
	 viewBox="0 0 365.6 87.8" style="enable-background:new 0 0 365.6 87.8;" xml:space="preserve">
<style type="text/css">
	.st0{fill:#F16341;}
	.st1{fill:#4C3935;}
	.st2{fill:#69130A;}
</style>
<g>
	<path class="st0" d="M0,2.1c4,0,8.1,0.1,12.1,0.1c5.9,0.1,9.2,2.7,10.5,8.4c0.3,1.2,0.4,2.5,0.4,3.8c0.1,6,0.1,11.9,0.1,17.9
		c0,4.3-0.6,8.4-5.2,10.8c2.8,1.5,4.3,3.6,4.8,6.4c0.2,0.9,0.3,1.8,0.3,2.7c0,7.2,0.1,14.5,0,21.7c-0.1,4.3-1.2,8.3-5.4,10.3
		c-1.7,0.8-3.8,1.1-5.7,1.2C7.9,85.7,4,85.6,0,85.6C0,57.8,0,29.9,0,2.1z M16.2,62.6C16.2,62.6,16.2,62.6,16.2,62.6
		c0-3.4,0-6.8,0-10.2c0-4-1.1-6.7-6.3-6.3c-2.6,0.2-2.6,0-2.6,2.7c0,8.6,0,17.3,0,25.9c0,3.6,0,3.6,3.7,3.6c3.9,0,5.2-1.3,5.2-5.2
		C16.2,69.7,16.2,66.2,16.2,62.6z M7.3,24.7c0,4.4,0,8.7,0,13.1c0,0.7,0.2,1.7,0.6,2c2,1.3,6.6-0.1,7.5-2.3c0.5-1.2,0.7-2.6,0.7-3.9
		c0.1-5.8,0-11.7,0-17.5c0-5.9-1-6.8-6.8-6.7c-1.6,0-2.1,0.6-2.1,2.2C7.3,15.8,7.3,20.2,7.3,24.7z"/>
	<path class="st1" d="M275.2,70.8c1.6-2.7,3-5.5,4.8-8c2-2.6,4.3-5.1,6.8-7.2c1.4-1.1,3.4-1.8,5.3-2c3.4-0.4,6,2.4,5.3,5.8
		c-1.1,5.2-2.5,10.3-3.8,15.5c-0.3,1.1-0.4,2.2-0.6,3.3c0.2,0.1,0.4,0.3,0.5,0.4c0.9-0.6,2.1-1,2.7-1.9c2.5-3.6,5.2-7.2,7.2-11.1
		c2.8-5.5,6.1-10.1,12.5-11.6c1.9-0.4,4-0.5,5.9-0.2c3.8,0.5,5.7,3.6,4.5,7.2c-0.7,1.9-2,3.8-3.5,5.1c-3.1,2.8-7,4.2-11.1,4.8
		c-1.6,0.3-2.1,0.8-1.9,2.5c0.6,4.6,2.6,6.2,7.1,5.4c3.5-0.6,6.3-2.5,8.7-5c4.3-4.6,6.7-10.2,9-16.1c-1.9-1.2-3.3-2.6-3.1-5
		c0.1-2,1.1-3.4,2.9-4.2c1.8-0.8,3.7-0.6,5.3,0.6c0.4,0.3,0.5,1,0.5,1.5c0,1.1-0.2,2.3-0.4,3.8c1.9,0.2,3.9,0.4,5.8,0.6
		c4.2,0.4,6,3.1,5,7.2c-1.2,4.6-2.5,9.3-3.8,13.9c-0.2,0.7-0.2,1.4-0.3,2c0.1,0.1,0.3,0.3,0.4,0.4c1-0.7,2.3-1.2,3-2.1
		c2.5-3.4,4.8-6.9,7.2-10.4c0.5-0.7,0.8-1.4,1.2-2.2c1.4,0.6,1.6,1.5,1.1,2.5c-2.6,5.6-5.6,11-10,15.4c-2.4,2.4-4.7,2.7-7.3,1.3
		c-2.5-1.4-3.7-3.8-2.9-6.9c1.3-5,2.7-10,4.1-15c0.2-0.6,0.3-1.2,0.4-2c-2.3-0.3-4.4-0.6-6.6-1c-1.4,3.1-2.7,6.2-4.2,9.2
		c-3.1,6.3-7.2,11.7-13.7,14.8c-2,0.9-4.3,1.5-6.5,1.7c-5.2,0.4-9.2-2.7-10.4-7.7c-0.1-0.5-0.3-1.1-0.5-1.9c-1.1,1.6-2,3-3.1,4.3
		c-1.2,1.4-2.4,2.9-3.8,4.1c-2.1,1.8-4.2,1.9-6.6,0.4c-2.1-1.3-3.4-3.6-2.8-6c1.2-5.1,2.5-10.1,3.7-15.1c0.2-0.9,0.2-1.8,0.3-2.8
		c-0.2-0.1-0.3-0.2-0.5-0.4c-1,0.5-2.1,0.9-2.8,1.6c-6.2,6-11,12.8-12.3,21.6c-0.1,0.6-0.2,1.2-0.4,2c-2.4-0.1-5.1-0.4-5.9-2.8
		c-0.7-1.9-0.1-4.3-0.1-7c-1,1.4-1.6,2.4-2.3,3.3c-1.5,1.8-2.9,3.6-4.6,5.1c-2.1,1.9-4.4,1.9-6.8,0.4c-2.2-1.3-3.2-3.7-2.6-6.3
		c1.6-7.3,3.2-14.5,4.8-21.8c0.2-1.1,0.7-1.3,1.7-1.3c4.5,0.1,6.2,2.3,5,6.6c-1.4,5.1-2.8,10.1-4.1,15.2c-0.1,0.2-0.1,0.4-0.1,0.6
		c0.1,0.8,0.3,1.6,0.4,2.3c0.8-0.3,1.7-0.4,2.2-0.9c4.1-3.8,7-8.4,8.9-13.5c1-2.8,1.6-5.8,2.2-8.7c0.3-1.4,0.9-1.6,2.2-1.4
		c3.9,0.5,5.4,2.6,4.2,6.4c-0.9,2.9-2,5.7-3,8.5c-0.2,0.7-0.5,1.4-0.7,2.1C275,70.8,275.1,70.8,275.2,70.8z M310.3,68.7
		c2.5-0.1,5.3-1.5,7.2-3.4c1.5-1.5,2.6-3.3,2.4-5.5c-0.1-1-0.6-2.6-1.3-2.8c-0.9-0.3-2.5,0.2-3.2,1
		C312.6,60.9,311.4,64.7,310.3,68.7z"/>
	<path class="st0" d="M77.8,45.4c4.7,2.6,5,6.9,4.9,11.5c-0.1,6.9,0,13.7,0,20.6c0,1.6,0.1,3.2,1.4,4.6c0.6,0.7,0.5,2.3,0.2,3.5
		c-0.1,0.4-1.5,0.6-2.3,0.6c-3.8,0-5.7-1.8-5.7-5.6c-0.1-8.3-0.1-16.7-0.1-25c0-0.8,0-1.5-0.1-2.3c-0.6-4-4.8-6.4-8.6-4.8
		c-0.5,0.2-0.9,1.3-0.9,2c-0.1,4,0,8.1,0,12.1c0,6.9,0,13.7,0,20.6c0,1.7-0.3,2.4-2.2,2.4c-4.6-0.1-4.6,0-4.6-4.7
		c0-25.4,0-50.8,0-76.2c0-2,0.5-2.6,2.5-2.5c3.9,0.2,7.8,0,11.7,0.4c4.7,0.5,7.8,4,8.3,8.7c0.2,2.4,0.4,4.7,0.4,7.1
		c0,6.4-0.1,12.8-0.3,19.2c-0.1,3-1.4,5.4-3.9,7.1C78.3,44.8,78.1,45,77.8,45.4z M66.7,25.3c0,4.7,0,9.4,0,14c0,0.7,0.3,1.8,0.9,2.1
		c3.5,1.6,7.4-0.5,8.1-4.3c0.2-1,0.3-2,0.3-3.1c0-6,0-11.9,0-17.9c0-5.8-1.2-7-7-7c-1.9,0-2.3,0.8-2.3,2.4
		C66.7,16.2,66.7,20.8,66.7,25.3z"/>
	<path class="st0" d="M28.3,85.5c0.4-4,0.7-7.6,1.1-11.2c0.7-6.3,1.5-12.6,2.2-18.9c0.8-7.5,1.6-15,2.5-22.5C35,25,35.8,17,36.7,9.1
		c0.2-1.8,0.5-3.6,0.6-5.3c0.1-1.1,0.5-1.5,1.7-1.5C44.9,2,44.8,2,45.4,7.9c0.9,9.4,2,18.8,2.9,28.3c0.8,8.3,1.6,16.6,2.5,24.8
		c0.8,7.5,1.5,15,2.5,22.5c0.2,1.6-0.2,2.1-1.7,2c-1-0.1-1.9,0-2.9,0c-2.4,0-2.5-0.1-2.7-2.6c-0.3-4.3-0.8-8.5-1.1-12.8
		c-0.1-1.1-0.5-1.6-1.6-1.6c-1.9,0.1-3.7,0.1-5.6,0c-1.1,0-1.5,0.5-1.6,1.5c-0.5,4.5-1,9-1.4,13.6c-0.1,1.4-0.6,2.1-2.1,2
		C31.3,85.4,30,85.5,28.3,85.5z M41.3,23.2c-0.2,0-0.4,0-0.6,0c-0.1,1.1-0.2,2.2-0.3,3.3c-1,10.6-2.1,21.1-3.1,31.7
		c-0.4,3.6-0.3,3.6,3.2,3.6c0.7,0,1.4,0,2.1,0c1.5,0,1.9-0.7,1.7-2.1c-0.4-2.9-0.7-5.8-0.9-8.8c-0.6-8.7-1.1-17.4-1.7-26
		C41.5,24.3,41.4,23.7,41.3,23.2z"/>
	<path class="st0" d="M178.4,85.5c-3.6,0-3.6,0-3.8-3.6c-0.2-3.9-0.6-7.8-0.8-11.7c-0.1-1.2-0.4-1.8-1.7-1.7c-1.7,0.1-3.5,0.1-5.2,0
		c-1.6-0.1-2.1,0.6-2.2,2.1c-0.4,4.3-0.9,8.6-1.3,13c-0.1,1.4-0.6,2-2.1,2c-4.5,0-4.5-0.1-3.9-4.6c1.1-8.8,2-17.7,3-26.5
		c0.8-7.1,1.7-14.2,2.5-21.3c0.6-5.8,1.1-11.6,1.8-17.4c0.4-4.1,1-8.3,1.5-12.4c0.1-0.4,0.7-0.9,1.2-1.1c0.7-0.2,1.4-0.1,2.1-0.1
		c4.3,0,4.1,0,4.5,4.2c0.7,7.4,1.5,14.8,2.3,22.1c0.9,8.1,1.8,16.3,2.6,24.4c0.7,7.1,1.3,14.1,2,21.2c0.3,2.8,0.6,5.6,1,8.4
		c0.4,2.8,0.3,2.9-2.5,2.9C179,85.5,178.7,85.5,178.4,85.5z M170,23.9c-0.2,0-0.4,0-0.6,0c-0.1,0.9-0.3,1.8-0.4,2.7
		c-0.4,3.9-0.8,7.8-1.1,11.6c-0.7,7.3-1.4,14.5-2.1,21.8c-0.1,1.1,0.3,1.7,1.4,1.7c1.4,0,2.8,0,4.2,0c1,0,1.6-0.5,1.5-1.5
		c0-0.6,0-1.3-0.1-1.9c-0.9-10.8-1.7-21.6-2.6-32.5C170.3,25.2,170.1,24.5,170,23.9z"/>
	<path class="st1" d="M241.3,58.4c-0.1-6.4-1.2-11.5-6.4-14.7c-8.2-5-22.9-2.4-28.9,5.2c-1.8,2.3-2.8,4.9-3,7.8
		c-0.2,3.6,1.1,6.6,4.6,8.1c1.3,0.6,1.3,1.3,0.9,2.4c-1,2.6-4,3.3-6.6,1.5c-2.2-1.5-3.3-3.7-3.8-6.2c-1.6-7.8,2.1-15.8,9.7-20.4
		c8.9-5.4,18.5-6.4,28.3-3.5c8.7,2.6,13.3,9,13.1,18.1c-0.3,10.5-4.7,19.1-13.9,24.4c-7.7,4.4-15.6,4.1-23.1-0.8
		c-1.1-0.7-1.7-1.5-1.4-2.8c1.6-8.8,2.9-17.7,4.8-26.4c1-4.8,4.5-6.2,8.3-4.2c1,0.5,1.4,1.1,0.9,2.4c-3.5,8.5-5,17.6-6.8,26.6
		c-0.2,1.2,0.4,1.8,1.3,2.3c4,2.1,8.1,1.7,12-0.3c5.8-2.9,8.2-8.2,9.5-14.2C241.1,61.7,241.2,59.6,241.3,58.4z"/>
	<path class="st0" d="M106,58.1c0-0.1,0-0.1,0-0.2c0.2-5.3-1.2-4.7,5.2-4.7c1.2,0,1.6,0.5,1.6,1.6c0,1.7-0.1,3.4,0,5
		c0.2,1.4,0.6,2.7,1.1,4c0.7,1.5,2,2.4,3.7,2.2c1.8-0.2,3.1-1.1,3.7-2.9c1.4-4.3,0.7-8.6-1.1-12.5c-3.1-6.7-6.5-13.2-9.9-19.7
		c-3.1-5.9-4.8-12-3.5-18.7c0.8-4,2.3-7.7,6.4-9.5c3.8-1.6,7.7-1.6,11.1,1.1c2.5,2,3.7,4.9,4.1,8c0.3,1.8,0.2,3.7,0.2,5.6
		c0,0.3,0.1,0.6-0.1,0.8c-1.3,2.1-3.3,0.6-5,1c-1,0.2-1.5-0.3-1.6-1.4c-0.1-2.1-0.3-4.2-0.7-6.3c-0.3-1.7-1.4-2.8-3.1-2.9
		c-1.8-0.1-3.2,0.7-4,2.4c-1.3,2.6-0.9,5.4-0.5,8.1c0.7,5,3.6,9.2,5.7,13.6c2.9,6.1,6.3,11.9,8.6,18.2c2,5.4,1.6,11.2-1.4,16.4
		c-2.6,4.5-6.9,5.7-11.8,4.8c-4.2-0.8-6.9-3.5-8-7.6c-0.5-2-0.7-4.1-1-6.2C105.8,58.2,105.9,58.2,106,58.1z"/>
	<path class="st0" d="M142.2,47.3c0-11.9,0-23.7,0-35.6c0-2.7,0-2.7-2.8-2.7c-0.1,0-0.3,0-0.4,0c-5.9-0.2-4.8,1.2-4.8-5.4
		c0-0.5,0.8-1.3,1.3-1.3c6.5-0.1,13.1-0.1,19.6,0c0.5,0,0.9,0.8,1.4,1.3c0.1,0.1,0,0.4,0,0.6c0.1,4.8,0.1,4.8-4.7,4.8
		c-2.7,0-2.8,0.1-2.8,2.8c0,23.6,0,47.1,0,70.7c0,3.1,0,3.1-3,3.1c-3.8,0-3.8,0-3.8-3.7C142.2,70.3,142.2,58.8,142.2,47.3z"/>
	<path class="st0" d="M92.6,36.7c0-10.8,0-21.6,0-32.3c0-1.8,0.6-2.3,2.3-2.2c4.9,0.1,4.9,0,4.9,4.8c0,20.6,0,41.2,0,61.8
		c0,2.9,0,2.9-2.8,2.9c-4.4,0-4.4,0-4.4-4.3C92.6,57.1,92.6,46.9,92.6,36.7z"/>
	<path class="st2" d="M92.5,85.6c0-2.6,0-5,0-7.5c12.2,0,24.3,0,36.6,0c0,2.4,0,4.9,0,7.5C116.9,85.6,104.8,85.6,92.5,85.6z"/>
	<path class="st1" d="M258.7,44.9c0.8-1.6,1.3-3.4,2.3-4.9c1.1-1.6,3.2-1.9,5-0.9c1.5,0.8,2.2,2,1.3,3.6c-0.7,1.4-1.5,2.8-2.3,4.2
		c-0.8,1.4-2.1,2-3.7,1.6C259.6,47.9,259,46.7,258.7,44.9z"/>
</g>
</svg>
